<svg width="800" height="800" viewBox="0 0 800 800" fill="none" xmlns="http://www.w3.org/2000/svg">
<path d="M400 767L342 715C274.667 654.333 219 602 175 558C131 514 96 474.5 70 439.5C44 404.5 25.8333 372.333 15.5 343C5.16667 313.667 0 283.667 0 253C0 190.333 21 138 63 96C105 53.9999 157.333 33 220 33C254.667 33 287.667 40.3333 319 55C350.333 69.6667 377.333 90.3333 400 117C422.667 90.3333 449.667 69.6667 481 55C512.333 40.3333 545.333 33 580 33C642.667 33 695 53.9999 737 96C779 138 800 190.333 800 253C800 283.667 794.833 313.667 784.5 343C774.167 372.333 756 404.5 730 439.5C704 474.5 669 514 625 558C581 602 525.333 654.333 458 715L400 767Z" fill="#FF6647"/>
</svg>
